<svg width="36" height="36" viewBox="0 0 36 36" fill="none" xmlns="http://www.w3.org/2000/svg">
<path d="M14.4368 13.9725C14.4368 13.057 14.8005 12.179 15.4478 11.5316C16.0952 10.8842 16.9733 10.5205 17.8888 10.5205C18.8043 10.5205 19.6824 10.8842 20.3298 11.5316C20.9771 12.179 21.3408 13.057 21.3408 13.9725C21.3408 14.8881 20.9771 15.7661 20.3298 16.4135C19.6824 17.0609 18.8043 17.4246 17.8888 17.4246C16.9733 17.4246 16.0952 17.0609 15.4478 16.4135C14.8005 15.7661 14.4368 14.8881 14.4368 13.9725Z" fill="white"/>
<path fill-rule="evenodd" clip-rule="evenodd" d="M17.6405 4C15.271 4.00009 12.9881 4.89126 11.2453 6.49656C9.50241 8.10186 8.42698 10.3039 8.2325 12.6654C8.01546 15.2976 8.8284 17.9113 10.5001 19.9561L16.0157 26.7006C16.2428 26.978 16.5286 27.2015 16.8526 27.3549C17.1765 27.5084 17.5305 27.588 17.889 27.588C18.2475 27.588 18.6015 27.5084 18.9254 27.3549C19.2494 27.2015 19.5352 26.978 19.7623 26.7006L25.2779 19.9561C26.9498 17.9114 27.7627 15.2976 27.5455 12.6654C27.351 10.3039 26.2756 8.10186 24.5327 6.49656C22.7899 4.89126 20.5071 4.00009 18.1376 4H17.6405ZM17.889 8.21916C16.3631 8.21916 14.8997 8.82532 13.8207 9.90429C12.7418 10.9833 12.1356 12.4467 12.1356 13.9726C12.1356 15.4984 12.7418 16.9618 13.8207 18.0408C14.8997 19.1198 16.3631 19.726 17.889 19.726C19.4149 19.726 20.8783 19.1198 21.9573 18.0408C23.0362 16.9618 23.6424 15.4984 23.6424 13.9726C23.6424 12.4467 23.0362 10.9833 21.9573 9.90429C20.8783 8.82532 19.4149 8.21916 17.889 8.21916Z" fill="white"/>
<path d="M10.7316 23.6845C11.0042 23.8208 11.2116 24.0597 11.3082 24.3488C11.4049 24.6379 11.3829 24.9535 11.2471 25.2264L9.01167 29.6987H26.7674L24.5305 25.2264C24.4616 25.091 24.4202 24.9434 24.4086 24.792C24.3971 24.6405 24.4156 24.4883 24.4632 24.3441C24.5107 24.1999 24.5863 24.0665 24.6857 23.9516C24.785 23.8368 24.9061 23.7427 25.042 23.6749C25.1779 23.6071 25.3258 23.5668 25.4773 23.5564C25.6288 23.546 25.7809 23.5657 25.9247 23.6144C26.0686 23.6631 26.2014 23.7397 26.3155 23.84C26.4296 23.9402 26.5227 24.062 26.5895 24.1984L29.6579 30.3354C29.7455 30.5108 29.7868 30.7057 29.7779 30.9016C29.769 31.0975 29.7102 31.2878 29.6071 31.4546C29.5039 31.6213 29.3599 31.759 29.1886 31.8545C29.0174 31.9499 28.8245 32 28.6285 32H7.14911C6.95316 31.9998 6.76053 31.9495 6.58946 31.8539C6.4184 31.7583 6.27458 31.6207 6.17162 31.4539C6.06867 31.2872 6.01 31.097 6.00117 30.9012C5.99234 30.7055 6.03364 30.5107 6.12117 30.3354L9.18965 24.1984C9.32597 23.9258 9.56489 23.7184 9.85398 23.6217C10.1431 23.5251 10.4587 23.5486 10.7316 23.6845Z" fill="white"/>
</svg>
