<svg width="36" height="36" viewBox="0 0 36 36" fill="none" xmlns="http://www.w3.org/2000/svg">
<path d="M20.3275 31.1173C23.8173 28.046 30.026 21.7712 30.026 16.013C30.026 12.8269 28.7603 9.77139 26.5074 7.51852C24.2546 5.26565 21.199 4 18.013 4C14.8269 4 11.7714 5.26565 9.51852 7.51852C7.26565 9.77139 6 12.8269 6 16.013C6 21.7712 12.2067 28.046 15.6985 31.1173C16.3354 31.6858 17.1593 32 18.013 32C18.8667 32 19.6906 31.6858 20.3275 31.1173ZM14.0087 16.013C14.0087 14.951 14.4305 13.9325 15.1815 13.1815C15.9325 12.4305 16.951 12.0087 18.013 12.0087C19.075 12.0087 20.0935 12.4305 20.8445 13.1815C21.5954 13.9325 22.0173 14.951 22.0173 16.013C22.0173 17.075 21.5954 18.0935 20.8445 18.8445C20.0935 19.5954 19.075 20.0173 18.013 20.0173C16.951 20.0173 15.9325 19.5954 15.1815 18.8445C14.4305 18.0935 14.0087 17.075 14.0087 16.013Z" fill="white"/>
</svg>
