<svg width="36" height="36" viewBox="0 0 36 36" fill="none" xmlns="http://www.w3.org/2000/svg">
<path d="M32 25.2839V10.4691C32 9.10288 30.8971 8 29.5309 8H6.46914C5.10288 8 4 9.10288 4 10.4691V25.2839C4 26.6502 5.10288 27.7531 6.46914 27.7531H29.5309C30.8971 27.7531 32 26.6502 32 25.2839ZM29.8436 10.2881C30.3868 10.8313 30.0905 11.3909 29.7942 11.6708L23.1111 17.7942L29.5309 24.4774C29.7284 24.7078 29.8601 25.07 29.6296 25.3169C29.4156 25.5802 28.9218 25.5638 28.7078 25.3992L21.5144 19.2593L17.9918 22.4691L14.4856 19.2593L7.29218 25.3992C7.07819 25.5638 6.58436 25.5802 6.37037 25.3169C6.13992 25.07 6.27161 24.7078 6.46914 24.4774L12.8889 17.7942L6.20576 11.6708C5.90946 11.3909 5.61317 10.8313 6.15638 10.2881C6.69959 9.74486 7.25926 10.0082 7.72016 10.4033L17.9918 18.6996L28.2798 10.4033C28.7407 10.0082 29.3004 9.74486 29.8436 10.2881Z" fill="white"/>
</svg>
