<svg width="36" height="36" viewBox="0 0 36 36" fill="none" xmlns="http://www.w3.org/2000/svg">
<path d="M9.63111 16.1178C11.8711 20.52 15.48 24.1289 19.8822 26.3689L23.3044 22.9467C23.74 22.5111 24.3467 22.3867 24.8911 22.5578C26.6333 23.1333 28.5 23.4444 30.4444 23.4444C30.857 23.4444 31.2527 23.6083 31.5444 23.9001C31.8361 24.1918 32 24.5874 32 25V30.4444C32 30.857 31.8361 31.2527 31.5444 31.5444C31.2527 31.8361 30.857 32 30.4444 32C23.4309 32 16.7047 29.2139 11.7454 24.2546C6.7861 19.2953 4 12.5691 4 5.55556C4 5.143 4.16389 4.74733 4.45561 4.45561C4.74733 4.16389 5.143 4 5.55556 4H11C11.4126 4 11.8082 4.16389 12.0999 4.45561C12.3917 4.74733 12.5556 5.143 12.5556 5.55556C12.5556 7.5 12.8667 9.36667 13.4422 11.1089C13.6133 11.6533 13.4889 12.26 13.0533 12.6956L9.63111 16.1178Z" fill="white"/>
</svg>
