<svg width="36" height="36" viewBox="0 0 36 36" fill="none" xmlns="http://www.w3.org/2000/svg">
<path d="M28.1206 24.7744C28.9292 23.3662 29.4451 21.6652 28.8316 19.6853C28.0927 17.2872 25.9874 15.4329 23.4777 15.1959C22.5471 15.0965 21.606 15.2067 20.7234 15.5185C19.8409 15.8302 19.0394 16.3355 18.3776 16.9973C17.7158 17.6591 17.2105 18.4606 16.8988 19.3431C16.587 20.2257 16.4768 21.1667 16.5762 22.0974C16.8271 24.5931 18.6675 26.7124 21.0657 27.4513C23.0594 28.0648 24.7465 27.5489 26.1547 26.7403L29.6403 30.2259C30.1841 30.7697 31.0485 30.7697 31.5923 30.2259C31.7214 30.0983 31.824 29.9463 31.894 29.7788C31.964 29.6112 32 29.4315 32 29.2499C32 29.0684 31.964 28.8886 31.894 28.7211C31.824 28.5535 31.7214 28.4016 31.5923 28.2739L28.1206 24.7744ZM22.8224 24.9138C20.8705 24.9138 19.3368 23.3801 19.3368 21.4282C19.3368 19.4762 20.8705 17.9425 22.8224 17.9425C24.7744 17.9425 26.308 19.4762 26.308 21.4282C26.308 23.3801 24.7744 24.9138 22.8224 24.9138ZM17.9425 29.0966V31.8851C10.2463 31.8851 4 25.6388 4 17.9425C4 10.2463 10.2463 4 17.9425 4C24.6907 4 30.3096 8.79623 31.6062 15.154H28.7201C28.2852 13.4695 27.4624 11.9101 26.3173 10.6004C25.1722 9.2907 23.7366 8.267 22.1253 7.61112V8.18276C22.1253 9.71644 20.8705 10.9713 19.3368 10.9713H16.5483V13.7598C16.5483 14.5266 15.9209 15.154 15.154 15.154H12.3655V17.9425H15.154V22.1253H13.7598L7.0813 15.4468C6.90005 16.2555 6.78851 17.0781 6.78851 17.9425C6.78851 24.0912 11.7939 29.0966 17.9425 29.0966Z" fill="white"/>
</svg>
