<svg width="36" height="36" viewBox="0 0 36 36" fill="none" xmlns="http://www.w3.org/2000/svg">
<path fill-rule="evenodd" clip-rule="evenodd" d="M18 4C10.2678 4 4 10.2678 4 18C4 20.646 4.735 23.124 6.0132 25.2352L4.7644 29.48C4.6927 29.7237 4.68798 29.9822 4.75074 30.2284C4.8135 30.4746 4.94143 30.6993 5.12106 30.8789C5.3007 31.0586 5.52541 31.1865 5.77158 31.2492C6.01775 31.312 6.27628 31.3073 6.52 31.2356L10.7648 29.9868C12.9469 31.3071 15.4495 32.0035 18 32C25.7322 32 32 25.7322 32 18C32 10.2678 25.7322 4 18 4ZM14.8332 21.1682C17.6654 23.999 20.3688 24.3728 21.3236 24.4078C22.7754 24.461 24.1894 23.3522 24.7396 22.0656C24.8091 21.9055 24.8343 21.7298 24.8126 21.5566C24.7909 21.3835 24.7232 21.2194 24.6164 21.0814C23.8492 20.1014 22.8118 19.3972 21.7982 18.6972C21.5866 18.5509 21.3265 18.4922 21.0725 18.5334C20.8186 18.5746 20.5904 18.7126 20.436 18.9184L19.596 20.1994C19.5518 20.2683 19.483 20.3176 19.4036 20.3374C19.3242 20.3572 19.2403 20.3459 19.169 20.3058C18.5992 19.9796 17.769 19.4252 17.1726 18.8288C16.5762 18.2324 16.0554 17.44 15.7628 16.9066C15.7265 16.8388 15.716 16.7602 15.7333 16.6853C15.7505 16.6104 15.7943 16.5443 15.8566 16.4992L17.1502 15.5388C17.3348 15.3783 17.4539 15.1555 17.4849 14.9128C17.5159 14.6701 17.4566 14.4245 17.3182 14.2228C16.691 13.3044 15.9602 12.1368 14.9004 11.3626C14.7636 11.2635 14.6034 11.2017 14.4355 11.1833C14.2676 11.1649 14.0978 11.1905 13.9428 11.2576C12.6548 11.8092 11.5404 13.2232 11.5936 14.6778C11.6286 15.6326 12.0024 18.336 14.8332 21.1682Z" fill="white"/>
</svg>
