<svg width="18" height="20" viewBox="0 0 18 20" fill="none" xmlns="http://www.w3.org/2000/svg">
<path fill-rule="evenodd" clip-rule="evenodd" d="M8.92577 0C11.293 0 13.5633 0.94039 15.2372 2.6143C16.9111 4.2882 17.8515 6.55851 17.8515 8.92577C17.8515 11.9744 16.1894 14.4697 14.4379 16.2598C13.5627 17.1443 12.6079 17.9464 11.5856 18.6558L11.1632 18.9435L10.9648 19.0754L10.5909 19.3134L10.2577 19.5167L9.84512 19.7567C9.56496 19.9161 9.24813 20 8.92577 20C8.6034 20 8.28658 19.9161 8.00641 19.7567L7.59384 19.5167L7.07813 19.1993L6.88772 19.0754L6.4811 18.8046C5.37825 18.0581 4.35088 17.2058 3.41361 16.2598C1.66218 14.4687 0 11.9744 0 8.92577C0 6.55851 0.94039 4.2882 2.6143 2.6143C4.2882 0.94039 6.55851 0 8.92577 0ZM8.92577 1.9835C7.08456 1.9835 5.31877 2.71492 4.01685 4.01685C2.71492 5.31877 1.9835 7.08456 1.9835 8.92577C1.9835 11.2286 3.24501 13.2498 4.83082 14.8723C5.51277 15.5625 6.24976 16.196 7.0345 16.7666L7.48872 17.0899C7.6355 17.192 7.77633 17.2872 7.9122 17.3755L8.29898 17.6234L8.63915 17.8307L8.92577 17.9983L9.37701 17.7315L9.74099 17.5034C9.93438 17.3805 10.1426 17.2426 10.3628 17.0899L10.817 16.7666C11.6018 16.196 12.3388 15.5625 13.0207 14.8723C14.6065 13.2508 15.868 11.2286 15.868 8.92577C15.868 7.08456 15.1366 5.31877 13.8347 4.01685C12.5328 2.71492 10.767 1.9835 8.92577 1.9835ZM8.92577 4.95876C9.97788 4.95876 10.9869 5.37671 11.7309 6.12067C12.4748 6.86463 12.8928 7.87365 12.8928 8.92577C12.8928 9.97788 12.4748 10.9869 11.7309 11.7309C10.9869 12.4748 9.97788 12.8928 8.92577 12.8928C7.87365 12.8928 6.86463 12.4748 6.12067 11.7309C5.37671 10.9869 4.95876 9.97788 4.95876 8.92577C4.95876 7.87365 5.37671 6.86463 6.12067 6.12067C6.86463 5.37671 7.87365 4.95876 8.92577 4.95876ZM8.92577 6.94226C8.39971 6.94226 7.8952 7.15124 7.52322 7.52322C7.15124 7.8952 6.94226 8.39971 6.94226 8.92577C6.94226 9.45182 7.15124 9.95634 7.52322 10.3283C7.8952 10.7003 8.39971 10.9093 8.92577 10.9093C9.45182 10.9093 9.95634 10.7003 10.3283 10.3283C10.7003 9.95634 10.9093 9.45182 10.9093 8.92577C10.9093 8.39971 10.7003 7.8952 10.3283 7.52322C9.95634 7.15124 9.45182 6.94226 8.92577 6.94226Z" fill="#5D5D5D"/>
</svg>
