<svg width="19" height="18" viewBox="0 0 19 18" fill="none" xmlns="http://www.w3.org/2000/svg">
<path d="M16.0738 3.66663H3.62934C2.6475 3.66663 1.85156 4.46256 1.85156 5.4444V15.2222C1.85156 16.204 2.6475 17 3.62934 17H16.0738C17.0556 17 17.8516 16.204 17.8516 15.2222V5.4444C17.8516 4.46256 17.0556 3.66663 16.0738 3.66663Z" stroke="#5D5D5D" stroke-width="2"/>
<path d="M1.85156 7.22218C1.85156 5.54574 1.85156 4.7084 2.37245 4.18751C2.89334 3.66663 3.73067 3.66663 5.40712 3.66663H14.296C15.9725 3.66663 16.8098 3.66663 17.3307 4.18751C17.8516 4.7084 17.8516 5.54574 17.8516 7.22218H1.85156Z" fill="#5D5D5D"/>
<path d="M5.40698 1V3.66667M14.2959 1V3.66667" stroke="#5D5D5D" stroke-width="2" stroke-linecap="round"/>
<path d="M8.51809 9H5.85143C5.60597 9 5.40698 9.19898 5.40698 9.44444V10.3333C5.40698 10.5788 5.60597 10.7778 5.85143 10.7778H8.51809C8.76355 10.7778 8.96254 10.5788 8.96254 10.3333V9.44444C8.96254 9.19898 8.76355 9 8.51809 9Z" fill="#5D5D5D"/>
<path d="M8.51809 12.5554H5.85143C5.60597 12.5554 5.40698 12.7544 5.40698 12.9999V13.8888C5.40698 14.1342 5.60597 14.3332 5.85143 14.3332H8.51809C8.76355 14.3332 8.96254 14.1342 8.96254 13.8888V12.9999C8.96254 12.7544 8.76355 12.5554 8.51809 12.5554Z" fill="#5D5D5D"/>
<path d="M13.8516 9H11.1849C10.9395 9 10.7405 9.19898 10.7405 9.44444V10.3333C10.7405 10.5788 10.9395 10.7778 11.1849 10.7778H13.8516C14.097 10.7778 14.296 10.5788 14.296 10.3333V9.44444C14.296 9.19898 14.097 9 13.8516 9Z" fill="#5D5D5D"/>
<path d="M13.8516 12.5554H11.1849C10.9395 12.5554 10.7405 12.7544 10.7405 12.9999V13.8888C10.7405 14.1342 10.9395 14.3332 11.1849 14.3332H13.8516C14.097 14.3332 14.296 14.1342 14.296 13.8888V12.9999C14.296 12.7544 14.097 12.5554 13.8516 12.5554Z" fill="#5D5D5D"/>
</svg>
